<svg xmlns="http://www.w3.org/2000/svg">


<symbol fill="none" viewBox="0 0 20 18" id="burger"><path fill="#fff" d="M0 0h20v2H0zM0 8h20v2H0zM0 16h10v2H0z"/></symbol>


<symbol viewBox="0 0 12 14" id="calendar"><path d="M10.667 1.75h-.584V.583H8.917V1.75H3.083V.583H1.917V1.75h-.584A1.17 1.17 0 00.167 2.917v9.333a1.17 1.17 0 001.166 1.167h9.334a1.17 1.17 0 001.166-1.167V2.917a1.17 1.17 0 00-1.166-1.167zm0 10.5H1.333V4.667h9.334v7.583z"/></symbol>


<symbol fill="none" viewBox="0 0 20 20" id="close"><circle cx="10" cy="10" r="10" fill="#666"/><path fill="#fff" d="M6.207 5.5l8.485 8.485-.707.707L5.5 6.207z"/><path fill="#fff" d="M5.59 13.985L14.077 5.5l.707.707-8.485 8.485z"/></symbol>

<symbol viewBox="0 0 18 18" id="phone"><path d="M16.343 12.098a10.49 10.49 0 01-3.236-.513.896.896 0 00-.926.22l-1.44 1.806c-2.593-1.238-5.023-3.575-6.315-6.261l1.787-1.522a.935.935 0 00.22-.935 10.223 10.223 0 01-.513-3.236.916.916 0 00-.907-.907H1.84C1.346.75.75.97.75 1.657c0 8.516 7.086 15.593 15.593 15.593.65 0 .907-.578.907-1.082v-3.162a.916.916 0 00-.907-.908z"/></symbol>

<symbol width="25" height="25" viewBox="0 0 25 25" id='search'>
<path d="M24.9113 22.8136L19.8536 18.3573C21.341 16.3763 22.1457 13.9543 22.1457 11.4068C22.1457 8.35737 20.9904 5.49807 18.9013 3.34219C16.8123 1.18631 14.0293 0 11.0728 0C8.11639 0 5.33342 1.19011 3.24434 3.34219C1.15157 5.49427 0 8.35737 0 11.4068C0 14.4524 1.15527 17.3193 3.24434 19.4714C5.33342 21.6273 8.1127 22.8136 11.0728 22.8136C13.5458 22.8136 15.8932 21.9847 17.8162 20.4562L22.8739 24.9086C22.902 24.9376 22.9354 24.9606 22.9721 24.9762C23.0088 24.9919 23.0482 25 23.088 25C23.1277 25 23.1671 24.9919 23.2038 24.9762C23.2406 24.9606 23.2739 24.9376 23.302 24.9086L24.9113 23.2546C24.9394 23.2257 24.9617 23.1913 24.9769 23.1535C24.9922 23.1156 25 23.0751 25 23.0341C25 22.9931 24.9922 22.9526 24.9769 22.9147C24.9617 22.8769 24.9394 22.8425 24.9113 22.8136ZM16.9193 17.4296C15.3543 19.0379 13.28 19.9238 11.0728 19.9238C8.86565 19.9238 6.79134 19.0379 5.22638 17.4296C3.66511 15.8174 2.80512 13.6805 2.80512 11.4068C2.80512 9.13303 3.66511 6.99236 5.22638 5.384C6.79134 3.77565 8.86565 2.88972 11.0728 2.88972C13.28 2.88972 15.358 3.77184 16.9193 5.384C18.4806 6.99616 19.3406 9.13303 19.3406 11.4068C19.3406 13.6805 18.4806 15.8212 16.9193 17.4296Z" fill="white"/>
</symbol>

<symbol fill="none" viewBox="0 0 12 12" id="time"><path d="M6 .167C2.792.167.167 2.792.167 6S2.792 11.833 6 11.833 11.833 9.208 11.833 6 9.208.167 6 .167zM8.45 8.45L5.417 6.583v-3.5h.875v3.034l2.625 1.575-.467.758z" fill="#fff"/></symbol>

<symbol viewBox="0 0 30 30" id="vk"><path d="M15 0C6.716 0 0 6.716 0 15c0 8.284 6.716 15 15 15 8.284 0 15-6.716 15-15 0-8.284-6.716-15-15-15zm7.609 16.622c.699.683 1.439 1.326 2.066 2.08.278.333.54.677.74 1.065.285.553.027 1.159-.467 1.192l-3.073-.001c-.794.066-1.426-.255-1.958-.797-.425-.433-.82-.894-1.229-1.342a2.871 2.871 0 00-.553-.492c-.42-.272-.783-.189-1.023.249-.245.445-.3.939-.324 1.434-.033.725-.252.914-.979.948-1.554.073-3.028-.163-4.398-.946-1.208-.69-2.144-1.666-2.959-2.77-1.587-2.152-2.803-4.514-3.895-6.944-.246-.547-.066-.84.538-.85a85.522 85.522 0 013.009-.002c.408.007.678.24.835.625.542 1.334 1.206 2.603 2.039 3.78.222.313.448.625.77.846.357.245.628.164.796-.233.107-.253.154-.523.177-.794.08-.927.09-1.854-.049-2.777-.086-.578-.41-.951-.987-1.06-.293-.056-.25-.165-.108-.332.248-.29.48-.47.944-.47h3.472c.547.107.67.353.744.904l.003 3.859c-.006.213.107.845.49.985.307.101.51-.145.693-.34.833-.883 1.426-1.926 1.957-3.005.235-.476.437-.969.634-1.462.146-.365.373-.545.785-.539l3.343.004c.099 0 .199.001.296.018.564.097.718.339.544.889-.275.863-.808 1.583-1.329 2.304-.558.772-1.154 1.517-1.707 2.293-.508.709-.468 1.066.163 1.681z"/></symbol>
<symbol width="30" height="30" viewBox="0 0 30 30" fill="none" id='classm'>
<g clip-path="url(#clip0_41399_288)">
<path d="M12.8527 9.99062C12.8527 11.2273 13.8552 12.2299 15.0919 12.2299C16.3286 12.2299 17.3311 11.2273 17.3311 9.99062C17.3311 8.75396 16.3286 7.7514 15.0919 7.7514C13.8552 7.7514 12.8527 8.75396 12.8527 9.99062Z" fill="#CACACA"/>
<path fill-rule="evenodd" clip-rule="evenodd" d="M15 30C23.2843 30 30 23.2843 30 15C30 6.71573 23.2843 0 15 0C6.71572 0 0 6.71573 0 15C0 23.2843 6.71572 30 15 30ZM9.67501 9.99055C9.67501 6.99892 12.1002 4.57364 15.0919 4.57364C18.0836 4.57364 20.5088 6.99892 20.5088 9.99055C20.5088 12.9822 18.0836 15.4077 15.0919 15.4077C12.1002 15.4077 9.67501 12.9822 9.67501 9.99055ZM20.5412 18.194C20.4724 18.2491 19.1729 19.2761 17.0043 19.7179L20.2777 22.9622C20.8534 23.5369 20.854 24.4695 20.2793 25.0451C19.7046 25.6207 18.7722 25.6216 18.1964 25.0467L15.0184 21.952L12.1319 25.0268C11.8429 25.3266 11.4575 25.4774 11.0716 25.4774C10.7035 25.4774 10.3351 25.3404 10.0493 25.0648C9.46372 24.5001 9.44677 23.5677 10.0114 22.9822L13.1185 19.735C10.8891 19.3036 9.53591 18.2499 9.46622 18.194C8.83165 17.6851 8.72971 16.7581 9.23862 16.1235C9.74746 15.4889 10.6744 15.387 11.3091 15.8958C11.3225 15.9067 12.7378 16.9699 15.0183 16.9715C17.2989 16.9699 18.6849 15.9067 18.6983 15.8958C19.333 15.387 20.2599 15.4889 20.7688 16.1235C21.2777 16.7581 21.1757 17.6851 20.5412 18.194Z" fill="#CACACA"/>
</g>
<defs>
<clipPath id="clip0_41399_288">
<rect width="30" height="30" fill="white" transform="matrix(-1 0 0 1 30 0)"/>
</clipPath>
</defs>
</symbol>

</svg>